# xmcd CD database file
#
# Track frame offsets:
#	150
#	5753
#	30617
#	84585
#	103528
#	121112
#	141699
#	163574
#	178264
#	204207
#	227587
#	243120
#	263000
#
# Disc length: 3561 seconds
#
# Revision: 0
# Processed by: cddbd v1.5.2PL0 Copyright (c) Steve Scherf et al.
# Submitted via: CDex 1.51
#
DISCID=a40de70d
DTITLE=Kailash - Live
DYEAR=1997
DGENRE=New Age
TTITLE0=Guru Brahma
TTITLE1=Satoma Mantra
TTITLE2=Om Namah Shivaya
TTITLE3=Six Syllable Mantra
TTITLE4=Medicine Buddha
TTITLE5=Three Om Mantra
TTITLE6=Message in a Bottle
TTITLE7=Rama
TTITLE8=Gopala Govinda
TTITLE9=Green Tara
TTITLE10=Karmapa Chenno
TTITLE11=Guru Rimpoche
TTITLE12=Lokha Salutation
EXTD=YEAR: 1997
EXTT0=
EXTT1=
EXTT2=
EXTT3=
EXTT4=
EXTT5=
EXTT6=
EXTT7=
EXTT8=
EXTT9=
EXTT10=
EXTT11=
EXTT12=
PLAYORDER=
